<!DOCTYPE svg PUBLIC "-//W3C//DTD SVG 1.1//EN" "http://www.w3.org/Graphics/SVG/1.1/DTD/svg11.dtd">
<!-- Uploaded to: SVG Repo, www.svgrepo.com, Transformed by: SVG Repo Mixer Tools -->
<svg fill="#F7931A" height="800px" width="800px" version="1.1" id="Layer_1" xmlns="http://www.w3.org/2000/svg" xmlns:xlink="http://www.w3.org/1999/xlink" viewBox="0 0 512 512" xml:space="preserve">
<g id="SVGRepo_bgCarrier" stroke-width="0"/>
<g id="SVGRepo_tracerCarrier" stroke-linecap="round" stroke-linejoin="round"/>
<g id="SVGRepo_iconCarrier"> <g> <g> <g> <path d="M149.333,405.333c-11.776,0-21.333,9.557-21.333,21.333S137.557,448,149.333,448s21.333-9.557,21.333-21.333 S161.109,405.333,149.333,405.333z"/> <path d="M490.667,85.333h-192V42.624C298.667,19.087,279.579,0,256.043,0H42.624C19.087,0,0,19.087,0,42.624v426.752 C0,492.913,19.087,512,42.624,512h213.419c23.537,0,42.624-19.087,42.624-42.624V384h192c11.782,0,21.333-9.551,21.333-21.333 v-256C512,94.885,502.449,85.333,490.667,85.333z M469.333,170.667H192V128h85.333h192V170.667z M256,469.333H42.667V42.667H256 v42.667h-85.333c-11.782,0-21.333,9.551-21.333,21.333v256c0,11.782,9.551,21.333,21.333,21.333H256V469.333z M277.333,341.333 H192v-128h277.333v128H277.333z"/> <path d="M427.509,256h-65.685c-11.307,0-20.501,9.173-20.501,20.48v23.04c0,11.307,9.195,20.48,20.501,20.48h65.685 c11.307,0,20.48-9.173,20.48-20.48v-23.04C447.989,265.173,438.816,256,427.509,256z"/> </g> </g> </g> </g>
</svg>